<svg viewBox="0 0 512 512" xmlns="http://www.w3.org/2000/svg"><g data-name="1"><path d="M179 352h-75.65a49.27 49.27 0 0 1-49.22-49.21V201.21A49.27 49.27 0 0 1 103.35 152H179a15 15 0 0 1 15 15v170a15 15 0 0 1-15 15Zm-75.65-170a19.24 19.24 0 0 0-19.22 19.21v101.58A19.24 19.24 0 0 0 103.35 322H164V182Z" fill="#ffffff" class="fill-000000"></path><path d="M295 416.92h-49.38A81.71 81.71 0 0 1 164 335.3V168.7a81.71 81.71 0 0 1 81.62-81.62H295a15 15 0 0 1 15 15v299.84a15 15 0 0 1-15 15Zm-49.38-299.84A51.68 51.68 0 0 0 194 168.7v166.6a51.68 51.68 0 0 0 51.62 51.62H280V117.08ZM356.35 309.39a15 15 0 0 1-10.6-25.61L430.53 199a15 15 0 0 1 21.21 21.22L367 305a15 15 0 0 1-10.65 4.39Z" fill="#ffffff" class="fill-000000"></path><path d="M441.13 309.39a14.93 14.93 0 0 1-10.6-4.39l-84.78-84.78A15 15 0 0 1 367 199l84.78 84.78a15 15 0 0 1-10.61 25.61Z" fill="#ffffff" class="fill-000000"></path></g></svg>